PathFileType        4      (X/Y/Z)      C:\Users\pc\Desktop\IMUTRC\Sujet_03\Sujet_03_velo_100.trc         
DataRate	CameraRate	NumFrames	NumMarkers	Units	OrigDataRate	OrigDataStartFrame	OrigNumFrames
60.0	60.0	4	64	mm	60.0	237	947
Frame#	Time	pHipOrigin			pRightASI			pLeftASI			pRightCSI			pLeftCSI			pRightIschialTub			pLeftIschialTub			pSacrum			pL5SpinalProcess			pL3SpinalProcess			pT12SpinalProcess			pIJ			pT4SpinalProcess			pT8SpinalProcess			pPX			pC7SpinalProcess			pTopOfHead			pRightAuricularis			pLeftAuricularis			pBackOfHead			pRightAcromion			pLeftAcromion			pRightArmLatEpicondyle			pRightArmMedEpicondyle			pLeftArmLatEpicondyle			pLeftArmMedEpicondyle			pRightUlnarStyloid			pRightRadialStyloid			pRightOlecranon			pLeftUlnarStyloid			pLeftRadialStyloid			pLeftOlecranon			pRightTopOfHand			pRightPinky			pRightBallHand			pLeftTopOfHand			pLeftPinky			pLeftBallHand			pRightGreaterTrochanter			pRightKneeLatEpicondyle			pRightKneeMedEpicondyle			pRightPatella			pLeftGreaterTrochanter			pLeftKneeLatEpicondyle			pLeftKneeMedEpicondyle			pLeftPatella			pRightTibialTub			pRightLatMalleolus			pRightMedMalleolus			pLeftTibialTub			pLeftLatMalleolus			pLeftMedMalleolus			pRightHeelFoot			pRightFirstMetatarsal			pRightFifthMetatarsal			pRightPivotFoot			pRightHeelCenter			pRightToe			pLeftHeelFoot			pLeftFirstMetatarsal			pLeftFifthMetatarsal			pLeftPivotFoot			pLeftHeelCenter			pLeftToe			
		X1	Y1	Z1	X2	Y2	Z2	X3	Y3	Z3	X4	Y4	Z4	X5	Y5	Z5	X6	Y6	Z6	X7	Y7	Z7	X8	Y8	Z8	X9	Y9	Z9	X10	Y10	Z10	X11	Y11	Z11	X12	Y12	Z12	X13	Y13	Z13	X14	Y14	Z14	X15	Y15	Z15	X16	Y16	Z16	X17	Y17	Z17	X18	Y18	Z18	X19	Y19	Z19	X20	Y20	Z20	X21	Y21	Z21	X22	Y22	Z22	X23	Y23	Z23	X24	Y24	Z24	X25	Y25	Z25	X26	Y26	Z26	X27	Y27	Z27	X28	Y28	Z28	X29	Y29	Z29	X30	Y30	Z30	X31	Y31	Z31	X32	Y32	Z32	X33	Y33	Z33	X34	Y34	Z34	X35	Y35	Z35	X36	Y36	Z36	X37	Y37	Z37	X38	Y38	Z38	X39	Y39	Z39	X40	Y40	Z40	X41	Y41	Z41	X42	Y42	Z42	X43	Y43	Z43	X44	Y44	Z44	X45	Y45	Z45	X46	Y46	Z46	X47	Y47	Z47	X48	Y48	Z48	X49	Y49	Z49	X50	Y50	Z50	X51	Y51	Z51	X52	Y52	Z52	X53	Y53	Z53	X54	Y54	Z54	X55	Y55	Z55	X56	Y56	Z56	X57	Y57	Z57	X58	Y58	Z58	X59	Y59	Z59	X60	Y60	Z60	X61	Y61	Z61	X62	Y62	Z62	X63	Y63	Z63	X64	Y64	Z64	
237	3.933	0.0	1249.98655	7.653960137173716E-14	104.14155000000001	1326.8255	129.88893000000007	80.75577999999999	1330.51193	-143.5978299999999	77.06935	1404.87406	109.21038000000009	57.77320999999999	1407.86928	-116.52562999999992	-65.14607	1208.97506	61.86284000000008	-74.76534	1210.47267	-50.976369999999925	-59.32842	1289.09723	5.587240000000083	4.03203	1376.01625	1.094410000000084	73.90133	1473.30335	-6.508849999999914	138.47139	1561.77759	-14.688109999999913	406.88931	1595.30103	-44.40991999999993	285.98605	1700.70978	-34.96344999999991	210.93271	1642.59096	-24.652979999999914	307.759	1511.66523	-30.585819999999924	332.98798	1734.98203	-40.896289999999915	588.61862	1813.54899	-97.74789999999993	518.80692	1769.25427	-4.089629999999923	484.99547	1761.65102	-144.2890299999999	475.261	1815.3922	-70.50289999999991	343.81686	1737.86205	169.46041000000008	316.22626	1705.77862	-251.1377999999999	421.86542	1443.69674	165.48599000000004	401.99328	1437.5335	108.57678000000006	400.49567	1421.86618	-243.13133999999994	390.9916	1418.41016	-183.39970999999994	505.96202	1203.61822	101.20392000000004	555.09518	1223.54796	110.76559000000005	385.34676	1436.89989	135.07297000000005	503.42761	1188.81491	-178.61887999999993	550.02634	1210.01187	-195.26539999999994	369.67945	1415.47254	-207.76468999999994	684.4081	1088.8206	177.98527000000004	594.20586	1104.89111	137.83779000000004	553.48236	1168.88517	104.89035000000004	668.04958	1080.12294	-287.88686	587.81221	1093.02543	-229.59523999999996	551.69675	1155.98268	-189.85095999999996	22.52176000000001	1214.4471	163.06677000000008	210.35671	850.87329	108.92238000000005	212.77592	856.92134	29.20341000000004	249.98579	877.02388	69.35090000000004	2.7072199999999893	1241.98009	-170.8428199999999	372.38667	1073.26849	-243.36173999999997	393.35322	1070.96447	-166.23478999999998	398.71006	1114.10718	-205.11506999999997	256.60984	806.46338	63.99406000000003	70.79091	428.02867	89.33824000000003	68.83249	430.44788	22.52176000000002	408.21412	1018.8361	-200.27662999999998	120.78806999999999	713.66911	-149.18506999999994	132.76895	720.63876	-83.80859999999997	-4.320029999999998	374.97869	24.42257000000002	151.25868	311.67583	-16.588919999999995	139.105	283.91243	59.27082000000001	165.94679	287.59886	19.756940000000007	31.91063	357.35296	23.788970000000017	240.19372	249.35219	17.62573	65.60687	661.65594	-65.54926999999996	225.33281	596.68267	-77.64535999999997	189.85096	572.2601	-147.05384999999998	227.69443	574.21851	-117.73523999999999	99.93672	644.03021	-76.95414999999996	298.37014	536.08704	-140.42981	
238	3.95	0.0	1249.98655	7.653960137173716E-14	104.08395000000002	1326.4799	130.11933000000008	80.98617999999999	1330.74233	-143.30982999999992	77.06935	1404.58606	109.61359000000009	58.00361999999999	1408.09968	-116.12242999999991	-65.20367	1208.85986	61.747640000000075	-74.76534	1210.64547	-51.14916999999992	-59.32842	1289.15483	5.644840000000083	4.14723	1376.01625	1.324810000000084	74.18933	1473.24575	-6.105639999999914	138.93219	1561.60478	-14.169699999999914	407.46532	1594.43702	-43.54590999999993	286.85005	1700.13378	-34.32984999999991	211.62392	1642.24536	-24.076969999999914	308.10461	1511.08922	-29.779409999999924	333.90959	1734.29082	-40.14748999999991	589.30982	1812.80018	-97.57509999999994	519.84372	1768.50547	-3.7440299999999236	485.57148	1760.78701	-143.77062999999993	476.00981	1814.5858	-69.98449999999991	344.56567	1737.17084	170.1516200000001	317.26307	1704.97221	-250.4465899999999	422.09582	1442.94793	166.17719000000005	402.16608	1436.84229	109.26798000000005	401.01407	1420.94458	-242.26733999999993	391.51	1417.54615	-182.47810999999993	506.19243	1202.92702	101.77993000000004	555.32558	1222.85676	111.34160000000004	385.57716	1436.15109	135.76417000000006	503.83081	1187.89331	-177.75486999999995	550.42954	1209.03266	-194.40138999999994	370.19785	1414.60853	-206.84307999999993	684.6961	1088.12939	178.44608000000002	594.49386	1104.19991	138.35619000000003	553.71277	1168.25157	105.46636000000004	668.45279	1079.14373	-287.02286	588.21541	1092.04622	-228.73123999999999	552.09995	1155.00347	-188.98694999999998	22.348960000000012	1214.2167	163.06677000000008	211.50871	851.2765	109.26798000000004	214.10073	857.43974	29.549010000000038	251.1954	877.59989	69.81170000000004	3.4560199999999894	1242.3257	-170.72761999999992	375.09389	1076.72451	-240.48171999999997	395.54203	1074.5933	-163.18196999999998	400.84127	1117.736	-202.00464999999997	254.99703	805.25377	64.45486000000002	48.78755000000001	437.01433	81.96539000000003	48.26915	440.18235	15.206510000000023	413.57096	1023.67453	-198.26061999999996	142.04262	702.84023	-156.73071999999993	152.87149	709.11868	-91.00864999999997	-27.07219	387.18997	16.070520000000023	126.54811	317.83908	-22.57935999999999	112.2056	290.70928	53.10758000000001	139.7962	293.2437	13.996900000000009	8.467260000000001	368.12424	15.955310000000024	212.48792	252.17461	13.075290000000004	88.99264	646.33423	-74.36212999999995	251.829	589.88582	-87.95582999999998	217.55676	565.17525	-157.82512999999997	255.28503	568.40087	-128.44892	124.18649	630.72452	-86.11261999999998	327.80395	534.30143	-152.06509	
239	3.967	0.0	1249.98655	7.653960137173716E-14	103.85354000000001	1326.5375	130.29213000000007	81.33177999999998	1330.62713	-143.1946299999999	76.89655	1404.64366	109.67119000000008	58.291619999999995	1407.98448	-116.12242999999991	-65.37647	1208.91746	61.63244000000008	-74.65013	1210.58787	-51.26436999999992	-59.32842	1289.15483	5.472040000000082	4.20483	1376.07386	1.2672100000000839	74.36213	1473.13055	-6.048039999999914	139.3354	1561.43198	-13.996899999999913	408.04132	1593.63061	-42.566699999999926	287.59886	1699.61537	-33.753839999999904	212.25752	1641.89976	-23.731369999999913	308.39261	1510.51322	-29.088209999999926	334.716	1733.65722	-39.456279999999914	590.05863	1812.10898	-97.17189999999992	520.88053	1767.75666	-3.1680199999999235	486.20508	1760.0382	-143.0794199999999	476.87382	1813.77939	-69.23569999999991	345.02647	1736.42204	170.90042000000008	318.35748	1704.39621	-249.81298999999993	422.49903	1442.42953	166.81079000000005	402.74208	1436.32389	109.90159000000006	401.70528	1420.25337	-241.00012999999996	392.31641	1417.14295	-181.21089999999995	506.94123	1202.52381	102.18313000000005	556.01678	1222.45355	111.74480000000004	386.03796	1435.57508	136.39778000000007	504.52201	1187.2597	-176.94846999999993	551.12075	1208.39905	-193.59498999999994	371.00426	1414.09013	-205.63346999999993	685.50251	1087.78379	178.79168000000004	595.24266	1103.85431	138.70179000000002	554.46157	1167.84836	105.86956000000005	669.08639	1078.56772	-286.44685	588.84902	1091.47022	-228.04002999999997	552.79116	1154.36987	-188.23814999999996	22.63696000000001	1214.9079	163.29717000000008	217.55676	854.73252	111.39920000000004	220.14878	860.49256	31.68023000000004	256.84024	881.45911	71.82771000000004	4.2624299999999895	1241.86489	-170.6124199999999	374.97869	1072.86528	-236.79529999999997	394.79323	1070.84927	-159.32273999999998	400.72607	1113.81918	-198.26061999999996	257.87705	806.63618	66.87408000000003	30.470620000000004	450.83843	74.82294000000003	31.85303	454.75526	8.064060000000026	416.33578	1021.08251	-196.24460999999997	161.51156	685.79051	-163.87316999999996	172.11003	690.80175	-98.03589999999997	-45.56193	404.5853	7.603250000000028	105.75436	329.01356	-28.166599999999985	89.10784	302.80537	47.347540000000016	117.38964	304.07258	8.697660000000011	-10.88648	384.13715	8.179260000000022	188.41095	260.18106	9.100870000000006	111.1112	625.07968	-83.23259999999996	276.53958	576.81053	-97.45989999999999	243.59214	551.98475	-167.9052	281.09001	556.41998	-138.41379	147.05385	611.42838	-95.21347999999998	355.22174	526.35257	-162.43316	
240	3.983	0.0	1249.98655	7.653960137173716E-14	103.45034000000001	1326.9407	130.4073300000001	81.73498999999998	1330.22393	-143.1946299999999	76.55095	1404.93166	109.44078000000009	58.63721999999999	1407.63888	-116.41042999999992	-65.54927	1209.09026	61.51724000000008	-74.47733	1210.47267	-51.37956999999992	-59.32842	1289.15483	5.184040000000083	4.26243	1376.07386	0.9216100000000841	74.53493	1473.13055	-6.278439999999914	139.681	1561.25918	-14.054499999999914	408.55973	1592.88181	-41.41469999999993	288.34767	1699.15457	-33.17783999999991	212.77592	1641.61176	-23.500969999999914	308.68061	1509.99481	-28.396999999999924	335.58	1733.08121	-38.59227999999992	590.80743	1811.36017	-96.48068999999992	521.85974	1766.89265	-2.3040199999999236	486.83869	1759.4046	-142.1578199999999	477.68022	1813.03058	-68.25648999999991	345.19927	1735.73083	171.64923000000007	319.50949	1704.1082	-249.17937999999992	423.01743	1442.02633	167.50200000000007	403.49089	1435.97828	110.41999000000006	402.56928	1419.85017	-239.50251999999995	393.29562	1416.97015	-179.65568999999994	507.92044	1202.35101	102.41353000000004	556.99599	1222.39595	112.03280000000004	386.67157	1435.17188	137.03138000000007	505.44362	1186.8565	-176.19965999999994	552.04235	1207.99585	-192.90377999999995	371.92586	1413.74452	-204.07825999999994	686.59692	1087.78379	178.96448000000004	596.39467	1103.7391	138.87459000000004	555.49838	1167.73316	106.09996000000004	669.8928	1078.33732	-286.04365	589.77062	1091.12461	-227.52162999999996	553.77037	1153.96666	-187.60453999999996	23.32817000000001	1216.23271	163.5851700000001	227.86723	861.06857	114.79762000000004	230.22885	866.195	35.02105000000004	266.40191	888.48636	74.93814000000005	5.011239999999989	1240.82809	-170.4972199999999	372.38667	1063.07321	-232.24485999999996	391.4524	1061.0572	-154.59950999999998	398.71006	1103.6815	-193.71018999999998	264.7315	810.72581	70.44530000000003	15.609710000000003	469.67376	67.56528000000003	19.12334	474.2242	0.9216100000000279	416.56618	1012.61525	-193.82538999999997	179.48289	663.84475	-171.13082999999997	190.36936	667.18558	-105.23594999999997	-60.71083	426.64626	-0.6911999999999703	88.07103	344.91127	-33.58103999999999	69.1205	319.79749	41.817900000000016	98.0359	319.73989	3.628830000000013	-26.89939	404.8733	0.5760000000000264	167.2716	273.02596	5.414440000000006	132.02015	598.75629	-92.10305999999997	299.57975	558.4936	-106.27275999999999	268.24512	533.66782	-177.46687	305.28219	539.19746	-147.62986	168.65401	587.0634	-104.14154999999997	380.85393	513.16208	-171.82203	
